<?xml version="1.0" encoding="utf-8"?>
<!-- Generator: Adobe Illustrator 21.0.2, SVG Export Plug-In . SVG Version: 6.00 Build 0)  -->
<svg version="1.1" id="Layer_1" xmlns="http://www.w3.org/2000/svg" xmlns:xlink="http://www.w3.org/1999/xlink" x="0px" y="0px"
	 viewBox="0 0 792 457.5" style="enable-background:new 0 0 792 457.5;" xml:space="preserve">
<style type="text/css">
	.st0{fill-rule:evenodd;clip-rule:evenodd;fill:#FFFFFF;}
	.st1{fill:#FFFFFF;}
</style>
<path class="st0" d="M85.9,239.8H48.8v10.9h37.8c0.3,0,1.2-0.2,1.9-1.1c1.2-1.6,1.2-3.8,1.2-4.3c0-0.5,0.2-2.4-0.9-4.1
	C87.7,239.6,85.9,239.8,85.9,239.8L85.9,239.8z M79.9,208.2H48.8v11.1h31.8c0.5,0,1.2-0.1,2.2-1.3c1.1-1.4,1.1-3.4,1.1-4.1
	c0-0.7-0.1-2.7-1.2-4.3C81.6,208,79.9,208.2,79.9,208.2L79.9,208.2z M9.2,276.1v-91.8h96.9c0,0,9,0,12.8,4.3
	c3.8,4.3,4.9,8.9,5.2,14.8c0.3,5.9-2.1,11.9-5.5,15.4c0,0-2.9,2.8-7.2,4.4c0,0,6.9,2.7,10.1,6.4c1.9,2.3,5.7,5.2,6.2,18.4
	c0.5,13.2-6.4,20.3-7.7,21.7c-1.2,1.5-7.2,6.4-17.3,6.4H9.2L9.2,276.1z"/>
<path class="st0" d="M186.5,219.1h31.8c0,0,1.6-0.2,2.4-1.3c0.8-1.1,1-2.7,1-4c0-1.3-0.1-2.5-1-4c-0.9-1.5-2.7-1.5-2.7-1.5h-31.5
	V219.1L186.5,219.1z M147.5,276.1v-91.8h88.3c11.3,0.5,16.2,3.6,20,7.1c3.8,3.5,7.4,11.4,7.1,19.4c-0.3,8-2.3,15-7.6,20.5
	c-5.4,5.5-13.9,6.5-13.9,6.5l23.4,38.3h-43l-21-34.9h-14.3v34.9H147.5L147.5,276.1z"/>
<path class="st1" d="M280.7,184.3h39.4v55.8c0,0,0,5.1,2.7,7.2c2.7,2,5.5,4,13.7,4c8.3,0,12-3.2,12.5-3.9c0.5-0.7,2.4-1.7,2.7-6.2
	c0.3-4.5,0-56.9,0-56.9h37.1V243c0,0,0,13.3-8.4,21c0,0-6.2,6.4-17,9.4c0,0-13.5,4.2-27.7,3.9c-11.9-0.2-20.3-0.9-32.8-5.2
	c-9.9-3.4-14.2-8-14.8-8.7s-7.6-6.5-7.5-22.2V184.3L280.7,184.3z"/>
<polygon class="st1" points="413.4,276.3 450.3,276.3 450.3,249.7 462.8,239.7 486.9,276.3 533.3,276.3 492.7,217 529.5,184.3 
	479.8,184.3 450.3,214.1 450.3,184.3 413.4,184.3 413.4,276.3 "/>
<polygon class="st1" points="544.8,276 544.8,184.3 651.7,184.3 651.7,208.3 583.9,208.3 583.9,218.2 635.8,218.2 635.8,240.7 
	583.9,240.7 583.9,250.8 651.7,250.8 651.7,276 544.8,276 "/>
<path class="st0" d="M712.1,219.1H744c0,0,1.6-0.2,2.4-1.3c0.8-1.1,1-2.7,1-3.9c0-1.2-0.1-2.4-1-3.9c-0.9-1.5-2.7-1.5-2.7-1.5h-31.5
	V219.1L712.1,219.1z M673.2,276.1v-91.8h88.3c11.3,0.5,16.2,3.6,20,7.1c3.8,3.5,7.4,11.4,7.1,19.4c-0.3,8-2.3,15-7.6,20.5
	c-5.4,5.5-13.9,6.5-13.9,6.5l23.4,38.3h-43l-21-34.9h-14.3v34.9H673.2L673.2,276.1z"/>
<path class="st1" d="M251.5,45.8c0-13.1,10.6-23.6,23.6-23.6c13.1,0,23.6,10.6,23.6,23.6c0,13-10.6,23.6-23.6,23.6
	C262,69.4,251.5,58.8,251.5,45.8L251.5,45.8z"/>
<path class="st1" d="M174.1,177.9c0,0-69.3-93.5-30.3-132.6C174.9,14.7,260.9,26.6,342,65.6c104.7,51.7,144.2,92.3,174.8,112.3
	c0.7,0.3-19.3,0-19.3,0C391.1,90.9,210.1-0.7,153,55.3c-31.6,32.2,42.2,114.4,45.3,122.6H174.1L174.1,177.9z"/>
<path class="st1" d="M292.7,177.9C446.2,50.8,537.4,32.2,608.1,32.2c66.7,0,68.8,45,69.1,52.2c1.2,32.4-21.9,68.2-38.5,93.5h-15.3
	c12.9-16.6,62.5-81.7,34-114.2c-24.3-27.7-107.3-13.4-169,13.4c-59.6,21.6-135.8,75.7-161.6,100.7
	C326.8,177.9,292.5,178,292.7,177.9L292.7,177.9z"/>
<path class="st1" d="M251.5,415.3c0-13.1,10.6-23.6,23.6-23.6c13.1,0,23.6,10.6,23.6,23.6c0,13-10.6,23.6-23.6,23.6
	C262,439,251.5,428.4,251.5,415.3L251.5,415.3z"/>
<path class="st1" d="M174.1,283.2c0,0-69.3,93.5-30.3,132.6c31.1,30.6,117.2,18.7,198.3-20.3c104.7-51.7,144.2-92.3,174.8-112.3
	c0.7-0.3-19.3,0-19.3,0c-106.5,87-287.5,178.6-344.6,122.6c-31.6-32.2,42.2-114.4,45.3-122.6H174.1L174.1,283.2z"/>
<path class="st1" d="M292.7,283.2c153.4,127.1,244.7,145.7,315.3,145.7c66.7,0,68.8-45,69.1-52.2c1.2-32.4-21.9-68.2-38.5-93.5
	h-15.3c12.9,16.6,62.5,81.7,34,114.2c-24.3,27.7-107.3,13.4-169-13.5c-59.6-21.6-135.8-75.7-161.6-100.7
	C326.8,283.2,292.5,283,292.7,283.2L292.7,283.2z"/>
</svg>
