<?xml version="1.0" encoding="utf-8"?>
<!-- Generator: Adobe Illustrator 16.0.3, SVG Export Plug-In . SVG Version: 6.00 Build 0)  -->
<!DOCTYPE svg PUBLIC "-//W3C//DTD SVG 1.1//EN" "http://www.w3.org/Graphics/SVG/1.1/DTD/svg11.dtd">
<svg version="1.1"
	 id="Ebene_1" xmlns:dc="http://purl.org/dc/elements/1.1/" xmlns:cc="http://creativecommons.org/ns#" xmlns:rdf="http://www.w3.org/1999/02/22-rdf-syntax-ns#" xmlns:svg="http://www.w3.org/2000/svg" xmlns:sodipodi="http://sodipodi.sourceforge.net/DTD/sodipodi-0.dtd" xmlns:inkscape="http://www.inkscape.org/namespaces/inkscape" sodipodi:docname="logo.svg" inkscape:version="0.48.1 "
	 xmlns="http://www.w3.org/2000/svg" xmlns:xlink="http://www.w3.org/1999/xlink" x="0px" y="0px" width="518px" height="72px"
	 viewBox="0 0 518 72" enable-background="new 0 0 518 72" xml:space="preserve">
<sodipodi:namedview  inkscape:cy="37.486842" inkscape:cx="72.177029" inkscape:zoom="7.1852238" showgrid="false" id="namedview14271" guidetolerance="10" gridtolerance="10" objecttolerance="10" borderopacity="1" bordercolor="#666666" pagecolor="#ffffff" inkscape:current-layer="Ebene_1" inkscape:window-maximized="1" inkscape:window-y="-8" inkscape:window-x="-8" inkscape:window-height="1018" inkscape:window-width="1920" inkscape:pageshadow="2" inkscape:pageopacity="0">
	</sodipodi:namedview>
<path fill-rule="evenodd" clip-rule="evenodd" fill="#1D1D1B" d="M14.745-38.276H7.618v2.09h7.271c0.065,0,0.237-0.036,0.365-0.208
	c0.222-0.299,0.233-0.726,0.233-0.825c0-0.101,0.037-0.467-0.18-0.78C15.09-38.312,14.745-38.276,14.745-38.276L14.745-38.276z
	 M13.606-44.346H7.618v2.135h6.111c0.088,0,0.237-0.018,0.417-0.246c0.211-0.268,0.218-0.653,0.218-0.795
	c0-0.141-0.021-0.523-0.23-0.829C13.926-44.386,13.606-44.346,13.606-44.346L13.606-44.346z M0-31.299v-17.639h18.623
	c0,0,1.721,0,2.458,0.836c0.738,0.836,0.943,1.705,0.993,2.836c0.049,1.131-0.402,2.286-1.05,2.95c0,0-0.549,0.542-1.385,0.845
	c0,0,1.336,0.516,1.934,1.229c0.365,0.435,1.099,1.008,1.188,3.541c0.09,2.533-1.237,3.902-1.475,4.18
	c-0.238,0.28-1.386,1.222-3.329,1.222H0L0-31.299z"/>
<path fill-rule="evenodd" clip-rule="evenodd" fill="#1D1D1B" d="M34.089-42.256h6.115c0,0,0.303-0.034,0.455-0.257
	c0.147-0.215,0.197-0.525,0.197-0.771c0-0.246-0.016-0.473-0.197-0.771c-0.18-0.297-0.512-0.292-0.512-0.292h-6.058V-42.256
	L34.089-42.256z M26.594-31.299v-17.644h16.97c2.181,0.096,3.107,0.694,3.845,1.358c0.737,0.664,1.426,2.197,1.369,3.729
	c-0.058,1.533-0.435,2.876-1.468,3.943c-1.033,1.065-2.663,1.245-2.663,1.245l4.491,7.369h-8.263l-4.032-6.705h-2.754v6.705H26.594
	L26.594-31.299z"/>
<path fill="#1D1D1B" d="M52.196-48.943h7.574v10.734c0,0,0.008,0.984,0.524,1.377c0.517,0.394,1.049,0.771,2.64,0.771
	c1.59,0,2.303-0.606,2.402-0.746s0.468-0.328,0.516-1.197c0.049-0.868,0-10.939,0-10.939h7.13v11.276c0,0,0.009,2.565-1.605,4.041
	c0,0-1.188,1.237-3.271,1.803c0,0-2.603,0.8-5.328,0.755c-2.291-0.039-3.894-0.177-6.295-1.009c-1.9-0.659-2.729-1.533-2.852-1.664
	s-1.459-1.246-1.435-4.263V-48.943L52.196-48.943z"/>
<polygon fill="#1D1D1B" points="77.7,-31.274 84.791,-31.274 84.791,-36.38 87.201,-38.298 91.815,-31.274 100.734,-31.274 
	92.947,-42.659 100.004,-48.943 90.455,-48.943 84.791,-43.225 84.791,-48.943 77.7,-48.943 77.7,-31.274 "/>
<polygon fill="#1D1D1B" points="102.946,-31.323 102.946,-48.942 123.49,-48.942 123.49,-44.34 110.475,-44.34 110.475,-42.434 
	120.434,-42.434 120.434,-38.101 110.475,-38.101 110.475,-36.175 123.49,-36.175 123.49,-31.323 102.946,-31.323 "/>
<path fill-rule="evenodd" clip-rule="evenodd" fill="#1D1D1B" d="M135.115-42.254h6.114c0,0,0.304-0.034,0.455-0.251
	c0.147-0.212,0.197-0.514,0.197-0.754c0-0.24-0.018-0.462-0.197-0.753c-0.181-0.291-0.513-0.286-0.513-0.286h-6.057V-42.254
	L135.115-42.254z M127.621-31.299v-17.644h16.969c2.18,0.096,3.106,0.694,3.845,1.358c0.738,0.664,1.426,2.197,1.37,3.729
	c-0.059,1.533-0.435,2.876-1.469,3.943c-1.031,1.065-2.664,1.245-2.664,1.245l4.492,7.369h-8.262l-4.033-6.705h-2.754v6.705H127.621
	L127.621-31.299z"/>
<path fill="#0069B3" d="M46.571-75.576c0-2.508,2.033-4.542,4.542-4.542c2.509,0,4.542,2.034,4.542,4.542s-2.033,4.542-4.542,4.542
	C48.604-71.034,46.571-73.068,46.571-75.576L46.571-75.576z"/>
<path fill="#0069B3" d="M31.698-50.181c0,0-13.328-17.965-5.828-25.49c5.98-5.879,22.522-3.588,38.108,3.902
	c20.12,9.932,27.719,17.736,33.598,21.587c0.128,0.055-3.699,0-3.699,0C73.404-66.904,38.616-84.51,27.643-73.746
	c-6.081,6.183,8.109,21.994,8.704,23.564H31.698L31.698-50.181z"/>
<path fill="#0069B3" d="M54.501-50.181C83.995-74.607,101.529-78.18,115.11-78.18c12.821,0,13.227,8.642,13.277,10.034
	c0.228,6.233-4.206,13.1-7.398,17.965h-2.94c2.484-3.192,12.012-15.709,6.537-21.943c-4.671-5.32-20.624-2.584-32.482,2.585
	C80.65-65.383,66.006-54.996,61.052-50.181C61.052-50.181,54.463-50.148,54.501-50.181L54.501-50.181z"/>
<path fill="#0069B3" d="M46.571-4.542c0-2.508,2.033-4.541,4.542-4.541c2.509,0,4.542,2.032,4.542,4.541S53.622,0,51.113,0
	C48.604,0,46.571-2.034,46.571-4.542L46.571-4.542z"/>
<path fill="#0069B3" d="M31.698-29.937c0,0-13.328,17.965-5.828,25.49c5.98,5.88,22.522,3.588,38.108-3.902
	c20.12-9.932,27.719-17.736,33.598-21.587c0.128-0.055-3.699,0-3.699,0C73.404-13.213,38.616,4.393,27.643-6.372
	c-6.081-6.182,8.109-21.994,8.704-23.565H31.698L31.698-29.937z"/>
<path fill="#0069B3" d="M54.501-29.937C83.995-5.511,101.529-1.939,115.11-1.939c12.821,0,13.227-8.64,13.277-10.033
	c0.228-6.233-4.206-13.1-7.398-17.965h-2.94c2.484,3.193,12.012,15.709,6.537,21.944c-4.671,5.319-20.624,2.584-32.482-2.586
	C80.65-14.734,66.006-25.123,61.052-29.937C61.052-29.937,54.463-29.969,54.501-29.937L54.501-29.937z"/>
</svg>
